<?xml version="1.0" encoding="UTF-8"?>
<svg xmlns="http://www.w3.org/2000/svg" id="Capa_2" data-name="Capa 2" viewBox="0 0 1757 2137.29">
  <defs>
    <style>
      .cls-1 {
        fill: #973390;
      }
    </style>
  </defs>
  <g id="Capa_2-2" data-name="Capa 2">
    <g id="Capa_2-2" data-name="Capa 2-2">
      <g>
        <g>
          <path class="cls-1" d="m1647.68,769.64c0,425.05-344.52,769.64-769.64,769.64S108.41,1194.69,108.41,769.64,452.93,0,878.04,0s769.64,344.52,769.64,769.64m-483.13,270.35c-115.22-126.97-7.81-245.77,89.01-330.11,4.84-4.18,3.51-11.87-2.3-14.17-157.19-62.73-255.76-100.75-267.38-273.86-.24-4.72.42-4.84,2-.42,14.17,37.9,27.25,88.64,53.16,116.98,3.63,3.94,4.84,3.39,3.94-1.88-21.98-115.47-68.54-220.16-139.38-313.95-.97-1.21-1.09-2.54-.54-3.39,2.85-3.94,1.33-2.85,3.21-.97,84.59,86.77,133.81,190.37,147.74,311.1.67,5.93,2.72,10.11,5.81,12.65,4.3,3.39,10.78.97,11.87-4.48,31.85-151.07,110.08-488.33-149.86-501.83C365.37,6.9-18.03,568.62,213.57,1082.61c4.97,10.9,8.66,10.54,11.08-1.21,7.14-33.97,20.1-67.88,39.11-101.42,39.11-68.97,135.02-114.56,197.63-41.96,2.3,2.72,6.48,2.97,9.02.42,41.84-42.51,92.52-83.07,149.86-71.51,8.11,1.63,9.45-.67,3.94-6.9-42.2-47.35-92.4-83.8-150.71-109.11-3.63-1.63-7.81.67-8.48,4.72-30.76,194.79-230.57,86.46-300.32-1.33-2.54-3.21-2.72-7.69-.24-10.9,49.77-67.57,126.79-124.91,214.77-107.66,48.14,9.57,75.26,44.81,83.62,91.19.67,4.06,3.51,7.57,7.45,9.02,161.06,62.49,245.4,209.62,348.16,339.56,27,34.15,39.78,29.43,38.33-14.05-1.76-55.46-3.75-121.52-6.05-198.42-4.06-134.48-254.31-239.71-349.25-306.74-3.39-2.3-7.69-2.3-10.9,0-110.62,80.83-196-88.64-178.86-174.87.79-4.06,3.94-7.27,7.93-8.36,105.48-28.03,276.16,21.98,189.82,164.87-1.88,3.09-.97,7.27,2.18,9.32,126.12,81.74,255.09,121.95,334.84,256.85,2.3,3.94,3.51,3.51,3.51-.97l.42-294.63c0-4.48-1.33-8.78-3.75-12.41-44.62-65.94-122.07-75.81-189.4-102.27-4.06-1.63-8.48-2-12.84-1.33-28.88,4.72-52.5.79-70.84-11.75-114.56-77.87,33.06-250.37,53.95-239.47,1.88,1.09,2.18,3.75.42,5.15-67.21,51.65-150.95,223.91,5.39,231.24,4.6.24,8.11-3.94,7.02-8.36l-9.99-42.75c-1.21-5.27.54-6.48,5.27-3.63,8.78,5.15,2.18,33.18,23.07,46.14,3.63,2.18,8.11,2,11.63-.24,87.01-58.67,24.95-157.31-28.22-217.61-2.97-3.39-2.72-3.75.97-1.09,69.21,51.83,126.67,163.66,42.38,229.18-2.85,2.18-3.75,5.93-2.18,9.02,2,4.18,8.11,7.45,13.2,7.93,61.4,6.9,111.95,33.18,151.61,78.65,2.85,3.39,4.48,2.85,4.6-1.63l13.38-394.29c0-.54.54-.97,1.09-.97l3.94-.12c1.63,0,2.97,1.33,2.85,2.97-4.72,336.17-1.09,672.21,10.9,1008.02,5.15,141.5-9.69,348.16-179.83,392.3-5.81,1.51-5.81,2.97,0,4.18,188.49,41.42,366.68,16.47,534.47-74.9,3.75-2,6.6-5.51,7.93-9.57,33.73-100.94,78.77-196.54,135.02-286.82,4.06-6.6,7.81-6.48,11.32.42l52.74,103.48c2.85,5.51,10.54,5.93,14.05.79l46.14-69.63c2-2.97.97-7.02-2.18-8.9l-165.78-95.91c-4.72-2.72-10.66-.67-12.53,4.3-16.47,43.17-47.11,72.72-91.85,88.64-9.02,3.21-24.52,17.68-46.26,43.17-3.09,3.51-2.3,5.15,2.3,4.72,71.39-5.81,105.36-30.64,162.94-44.93,7.81-2,8.36-.79,1.63,3.63-66.24,43.29-138.96,62.3-218.4,57.04-8.36-.67-8.78-2.72-1.21-6.18,112.38-52.31,111.71-149.74,101.42-258.18-.42-3.94-4.18-6.48-7.93-5.39-2.72.79-4.18,3.21-4.48,7.45-5.69,89.85-45.9,119.95-77.44,189.7-53.83,119.1-108.2,237.96-163.12,356.81-1.88,4.18-2.18,4.06-.79-.42,48.44-156.64,114.56-305.29,198.3-446,25.79-43.29,29-85.8,45.17-133.03,1.51-4.3,2-8.78,1.33-13.38-1.21-8.9-1.09-17.68.24-26.46.79-4.72,3.75-8.78,8.11-10.66l155.79-70.3c11.75-5.27,11.99-10.9.54-17.01l-115.04-60.73c-4.18-2.18-9.2-1.21-12.29,2.3-99.54,111.29-174.02,167.18-98.76,329.33,2,4.3,1.33,4.72-1.88,1.21m-20.45-791.62c2.97-4.48,6.6-8.36,11.08-11.75,22.83-18.1,36.45-12.65,40.87,16.05,7.57,48.44-2.72,121.16-61.64,133.03-4.06.79-7.14,3.75-8.36,7.69-12.29,41.17-33.48,135.87-65.57,162.15-2.97,2.54-3.51,6.9-1.33,9.99,6.36,9.2,14.83,20.89,25.49,25.79,188.31,85.37,424.27,155.79,492.93,363.29.97,2.97,4.06,4.84,7.14,4.18,2-.42,3.21-1.76,3.94-4.18,101.6-395.26-126.55-770.18-512.12-895.09-2-.67-4.06-.42-6.05.67-2.97,1.63-3.75,5.69-1.51,8.11,68.24,74.9,80.29,215.98,58.43,309.34-2.3,9.57-.24,10.54,5.93,2.85,27.91-35.36,40.87-76.23,38.87-122.49-.24-5.51-5.39-9.45-10.78-8.11l-13.74,3.39c-5.51,1.33-6.6-.24-3.51-4.84m-709.57,235.84l49.89,42.51c2.85,2.42,7.14,2.3,9.87-.42,56.25-55.58,3.94-131.69-62.97-143.68-33.6-6.05-67.69-7.93-102.27-5.93-9.57.54-16.71,9.02-15.38,18.59,9.99,73.51,38.87,157.85,126.97,164.33,11.99.97,23.61-4.97,35.06-17.56,2.54-2.97,2.54-7.27,0-10.11l-42.08-46.68c-4.72-5.27-4.48-5.69.97-1.09m-92.94,242.56c31.55-5.27,64.24-4.3,98.09,2.85,2.97.67,5.69-2.18,4.84-5.15-43.6-156.46-215.98-46.26-276.28,21.07-1.76,2-1.76,4.97.12,6.9,64.06,67.21,256.18,181.59,277.25.79.42-4.06-2.3-7.69-6.18-8.36l-97.79-16.59c-2.97-.54-2.97-1.09,0-1.51m1091.21,64.61c-10.23-6.9-23.61-6.6-33.6.54-47.35,34.39-99.54,56.55-156.76,66.66-3.75.67-6.05,4.48-4.84,8.11,18.89,57.58,43.05,115.59,96.45,150.52,58.31,38.02,116.98,75.93,175.89,113.83,4.18,2.54,9.57.97,11.63-3.51l56.79-133.03c1.76-4.18,1.88-8.78.42-13.08-28.22-79.74-76.78-143.14-145.98-190.06m-914.11,557.29c-24.16-104.39-20.34-234.63,123.58-231.48,4.3.12,8.36-2.3,10.41-6.18,25.79-49.53,66.66-69.09,122.37-58.97,6.05,1.09,7.14-.67,3.21-5.39-36.27-43.29-72.05-87.31-107.23-131.94-59.1-75.14-143.8-13.38-188.97,37.66-3.39,3.75-4.18,9.45-1.88,14.05,48.68,100.63-50.44,173.78-143.14,159.61-36.27-5.51-72.72-15.26-109.29-29-4.18-1.51-5.27-.24-3.21,3.63,71.21,142.05,180.38,249.82,327.57,323.39,146.23,73.14,247.16,12.65,286.7-131.94,13.5-49.53,19.86-95.79,19.01-138.96-.42-25.79-11.44-45.59-32.94-59.76-67.21-44.26-120.49-34.39-159.85,29.55-1.76,2.97-.79,6.72,2.18,8.48,82.59,47.77,73.26,133.57,2.85,184.67-40.99,29.79-88.64,43.05-142.83,39.78-4.06-.24-7.45-3.21-8.36-7.14m-114.01-317.16c14.83-24.16,30.76-47.47,47.89-70.3,3.09-4.18,2.54-9.87-1.21-13.2-103.6-93.61-190.91,39.9-218.16,124.25-3.21,9.99,2.18,20.65,11.99,24.16,82.83,28.34,253.34,36.15,226.39-107.66-3.09-17.14-10.23-18.89-21.19-5.39l-41.54,51.1c-16.59,20.34-18.1,19.44-4.18-2.97m918.83.54c-31.97-18.89-53.16-46.26-63.39-82.29-4.72-16.59-6.6-16.35-5.39.97,3.63,54.49,12.29,119.1-14.41,161.73-2,3.21-.67,7.57,2.85,8.9,9.2,3.75,73.39-74.72,81.2-84.71,1.21-1.51.79-3.63-.79-4.6m-706.61,199.27c.79-29.67,7.57-57.88,20.22-84.71,2.42-5.15-.79-11.32-6.48-12.17-118.43-17.26-112.8,134.9-110.5,203.32.42,9.99,9.02,17.56,19.01,16.47,53.16-5.81,96.7-24.16,130.85-55.16,51.65-47.11,54.49-115.04-12.65-150.83-4.3-2.42-9.87-.12-11.32,4.6l-25.25,79.2c-2.85,8.78-4.18,8.66-3.94-.67m770.74-70.42l-118.55,224.88c-4.3,8.23-2.72,9.69,4.97,4.6,61.64-41.42,116.98-90.28,165.78-146.53,3.39-3.75,3.63-9.45.79-13.62l-46.8-69.63c-1.51-2.3-4.97-2.18-6.18.24h0v.06Z"></path>
          <path class="cls-1" d="m886.4,427.64c1.21-26.04,2.97-26.04,5.27-.12,10.66,117.53,31,239.05,61.09,364.63,8.78,36.15,12.65,70.66,11.99,103.48-.79,40.45-42.08,599.37-63.39,601.13-1.21.12-2.3-1.09-2.18-2.3,15.26-146.65,31-331.32,47.35-554.33,3.75-52.07.54-100.75-9.57-146.23-25.49-113.47-55.83-250.25-50.62-366.26h.06Z"></path>
        </g>
        <g>
          <path class="cls-1" d="m1228.08,1669.64l69.09.12c5.93,0,6.9,2.18,2.97,6.6-23.07,25.79-80.29,109.65-118.43,92.03-3.75-1.76-5.39-6.05-3.75-9.87l36.69-80.11c2.42-5.39,7.69-8.78,13.5-8.78h-.06Z"></path>
          <path class="cls-1" d="m128,2071.64h41.32c2.71,0,4.83,1.99,4.83,4.7l1.99,47.36c0,2.71-2.17,4.94-4.83,4.94H4.83c-2.71,0-4.83-2.17-4.83-4.82v-47.36c0-2.71,2.17-4.82,4.83-4.82h44.09c1.99,0,3.74-1.33,4.58-3.19l119.49-332.9c1.21-3.07-1.21-6.45-4.58-6.45l-42.46.96c-2.71.12-4.95-2.17-4.95-4.82v-43.7c0-2.76,2.2-4.9,4.9-4.9h223.29c2.76,0,4.9,2.33,4.9,5.02l-1.65,41.2c0,2.76-2.2,4.78-4.9,4.78l-45.6.12c-3.39,0-5.69,3.39-4.48,6.47l122.78,334.17c.67,1.87,2.54,3.21,4.72,3.08l40.16-.79c2.72-.12,4.96,2,4.96,4.72l1.63,48.27c0,2.72-2.18,4.96-4.84,4.96h-166.02c-2.72,0-4.84-2.18-4.84-4.84v-48.33c0-2.72,2.17-4.83,4.83-4.83l42.6-.12c3.38,0,5.67-3.2,4.59-6.34l-30.11-91.17c-.66-1.99-2.41-3.38-4.59-3.38h-155.08c-2,0-3.94,1.33-4.6,3.39l-29.97,91.49c-.97,3.09,1.33,6.36,4.72,6.36m46.93-161.41c-.97,3.09,1.21,6.18,4.48,6.18l113.47.79c3.21,0,5.51-3.09,4.6-6.05l-55.58-176.74c-1.33-4.3-7.57-4.48-8.9,0l-58.01,175.77h0l-.06.06Z"></path>
          <path class="cls-1" d="m953.88,1811.64h44c3.61,0,6.56,2.83,6.68,6.32l1.63,41.95c.24,4.69-3.61,8.73-8.31,8.73h-42.8c-3.73,0-6.68,3.07-6.86,6.86-.42,57.12.24,114,1.99,170.7.66,19.74,15.83,28.41,45.62,26.12,5.48-.42,10.35,4.03,10.17,9.51l-.12,32.52c-.12,4.58-2.98,8.62-7.17,10.18-153.56,56.52-111.73-176.66-112.58-248.91,0-3.92-3.1-6.99-7.04-6.99h-26.37c-3.71,0-6.72-3.01-6.72-6.72v-43.56c0-3.71,3.01-6.72,6.72-6.72h26.56c3.71,0,6.72-3.01,6.72-6.72v-33.06c0-4.48,1.77-8.66,4.99-11.63l49.62-45.9c4.2-4.06,6.39-3.09,6.39,2.72v87.8c0,3.75,2.98,6.72,6.76,6.72h0l.12.06Z"></path>
          <path class="cls-1" d="m733.72,1825.05c13.74-15.26,31.97-19.44,54.8-12.29,3.94,1.21,6.48,4.84,6.48,8.9v102.51c0,4.72-3.75,8.48-8.36,8.48h-40.08c-4.6,0-8.66-3.21-9.57-7.81-18.47-88.64-138.84-77.14-166.75-1.33-46.68,125.88,112.08,227.6,179.04,100.63,2-3.75,6.6-5.15,10.41-3.09l37.9,21.19c3.63,2,4.84,6.72,2.54,10.11-41.96,65.27-96.58,92.94-163.66,82.95-232.57-34.82-156.64-418.21,91.07-308.92,2.18.97,4.72.42,6.18-1.33h0Z"></path>
          <path class="cls-1" d="m1711,2071.64h35.89c5.56,0,10.11,4.55,10.11,10.11v38.58c0,4.57-3.76,8.31-8.48,8.31h-92.79c-3.76,0-6.73-2.95-6.73-6.68l.12-21.73c0-6.98-2.73-8.19-8.12-3.73-50.91,42.67-100.48,49.48-148.42,20.4-133.03-80.47,10-238.95,141.09-162.39,2.97,1.75,6.61,0,7.27-3.19,19.88-93.35-78.42-121.64-133.03-60.91-3.09,3.49-7.94,4.69-12.42,3.37l-41.58-12.76c-4.73-1.32-6.48-7.1-3.39-11.01,50.79-61.81,116.12-78.61,196.06-50.56,82.12,28.83,56.42,177.68,57.09,245.51,0,3.73,2.97,6.68,6.73,6.68m-82.81-70.92c-23.86-13.87-49.23-20.53-76.11-19.98-27.79.54-43.72,14.59-47.89,42.08-12.53,85.01,88.1,63.52,127.21,34.27,27.37-20.53,26.28-39.24-3.21-56.37h0Z"></path>
          <path class="cls-1" d="m1174.92,2077.01c39.06,5.74,72.72-5.86,100.68-34.56,3.52-3.54,5.4-8.3,5.4-13.31v-153.79c0-3.71-3.01-6.72-6.72-6.72h-38.92c-4.6,0-8.36-3.74-8.36-8.44v-40.09c0-4.68,3.8-8.48,8.48-8.48h101.17c4.6,0,8.36,3.74,8.36,8.44v246.67c0,4.85,4.18,8.67,9.03,8.12l35.76-4.06c4.85-.55,9.21,3.21,9.21,8.12v42.99c0,3.71-3.01,6.72-6.72,6.72h-103.28c-4.73,0-8.48-4.06-7.94-8.79l1.64-17.82c.67-6.61-1.76-7.94-7.15-4.06-70.91,51.47-177.27,57.95-182.67-57.95-1.21-27.4-1.64-82.14-1.09-164.34,0-3.94-3.09-7.03-6.91-7.03h-26.77c-5.56,0-10.11-4.55-10.11-10.11v-37.58c0-5.73,4.76-10.49,10.49-10.31l89.93.98c4.18.12,7.58,3.54,7.58,7.75l.24,236.03c0,10.87,7.95,20.27,18.8,21.73h0l-.12-.12Z"></path>
        </g>
      </g>
    </g>
  </g>
</svg>
